G04 EAGLE Gerber RS-274X export*
G75*
%MOMM*%
%FSLAX34Y34*%
%LPD*%
%INTop Copper*%
%IPPOS*%
%AMOC8*
5,1,8,0,0,1.08239X$1,22.5*%
G01*
%ADD10R,1.524000X1.524000*%
%ADD11P,1.649562X8X292.500000*%
%ADD12C,1.400000*%
%ADD13C,1.960000*%
%ADD14R,0.800000X0.800000*%
%ADD15R,0.500000X0.600000*%
%ADD16R,1.676400X1.676400*%
%ADD17C,1.676400*%
%ADD18C,4.016000*%
%ADD19R,1.800000X1.900000*%
%ADD20R,1.900000X1.900000*%
%ADD21R,2.100000X1.600000*%
%ADD22R,0.400000X1.350000*%
%ADD23C,1.016000*%
%ADD24C,4.445000*%
%ADD25R,1.300000X1.500000*%
%ADD26C,0.381000*%
%ADD27C,0.254000*%
%ADD28C,0.609600*%

G36*
X1267444Y1012308D02*
X1267444Y1012308D01*
X1267437Y1012427D01*
X1267424Y1012465D01*
X1267419Y1012506D01*
X1267376Y1012616D01*
X1267339Y1012729D01*
X1267317Y1012764D01*
X1267302Y1012801D01*
X1267233Y1012897D01*
X1267169Y1012998D01*
X1267139Y1013026D01*
X1267116Y1013059D01*
X1267024Y1013135D01*
X1266937Y1013216D01*
X1266902Y1013236D01*
X1266871Y1013261D01*
X1266763Y1013312D01*
X1266659Y1013370D01*
X1266619Y1013380D01*
X1266583Y1013397D01*
X1266466Y1013419D01*
X1266351Y1013449D01*
X1266291Y1013453D01*
X1266271Y1013457D01*
X1266250Y1013455D01*
X1266190Y1013459D01*
X974845Y1013459D01*
X974714Y1013443D01*
X974582Y1013432D01*
X974556Y1013423D01*
X974530Y1013419D01*
X974406Y1013371D01*
X974281Y1013327D01*
X974259Y1013312D01*
X974234Y1013302D01*
X974127Y1013225D01*
X974016Y1013151D01*
X973998Y1013131D01*
X973976Y1013116D01*
X973892Y1013014D01*
X973803Y1012915D01*
X973791Y1012891D01*
X973774Y1012871D01*
X973717Y1012751D01*
X973656Y1012633D01*
X973650Y1012607D01*
X973638Y1012583D01*
X973613Y1012453D01*
X973583Y1012324D01*
X973583Y1012297D01*
X973578Y1012271D01*
X973587Y1012139D01*
X973589Y1012006D01*
X973596Y1011980D01*
X973598Y1011953D01*
X973639Y1011827D01*
X973674Y1011700D01*
X973691Y1011665D01*
X973696Y1011651D01*
X973708Y1011632D01*
X973746Y1011555D01*
X973928Y1011241D01*
X974101Y1010594D01*
X974101Y1003299D01*
X963830Y1003299D01*
X963712Y1003284D01*
X963593Y1003277D01*
X963555Y1003264D01*
X963515Y1003259D01*
X963404Y1003215D01*
X963291Y1003179D01*
X963256Y1003157D01*
X963219Y1003142D01*
X963123Y1003072D01*
X963022Y1003009D01*
X962994Y1002979D01*
X962962Y1002955D01*
X962886Y1002864D01*
X962804Y1002777D01*
X962785Y1002742D01*
X962759Y1002710D01*
X962708Y1002603D01*
X962651Y1002499D01*
X962640Y1002459D01*
X962623Y1002423D01*
X962601Y1002306D01*
X962571Y1002191D01*
X962567Y1002130D01*
X962563Y1002110D01*
X962565Y1002090D01*
X962561Y1002030D01*
X962561Y1000759D01*
X962559Y1000759D01*
X962559Y1002030D01*
X962544Y1002148D01*
X962537Y1002267D01*
X962524Y1002305D01*
X962519Y1002345D01*
X962475Y1002456D01*
X962439Y1002569D01*
X962417Y1002604D01*
X962402Y1002641D01*
X962332Y1002737D01*
X962269Y1002838D01*
X962239Y1002866D01*
X962215Y1002898D01*
X962124Y1002974D01*
X962037Y1003056D01*
X962002Y1003075D01*
X961970Y1003101D01*
X961863Y1003152D01*
X961759Y1003209D01*
X961719Y1003220D01*
X961683Y1003237D01*
X961566Y1003259D01*
X961451Y1003289D01*
X961390Y1003293D01*
X961370Y1003297D01*
X961350Y1003295D01*
X961290Y1003299D01*
X937830Y1003299D01*
X937712Y1003284D01*
X937593Y1003277D01*
X937555Y1003264D01*
X937515Y1003259D01*
X937404Y1003215D01*
X937291Y1003179D01*
X937256Y1003157D01*
X937219Y1003142D01*
X937123Y1003072D01*
X937022Y1003009D01*
X936994Y1002979D01*
X936962Y1002955D01*
X936886Y1002864D01*
X936804Y1002777D01*
X936785Y1002742D01*
X936759Y1002710D01*
X936708Y1002603D01*
X936651Y1002499D01*
X936640Y1002459D01*
X936623Y1002423D01*
X936601Y1002306D01*
X936571Y1002191D01*
X936567Y1002130D01*
X936563Y1002110D01*
X936565Y1002090D01*
X936561Y1002030D01*
X936561Y1000759D01*
X936559Y1000759D01*
X936559Y1002030D01*
X936544Y1002148D01*
X936537Y1002267D01*
X936524Y1002305D01*
X936519Y1002345D01*
X936475Y1002456D01*
X936439Y1002569D01*
X936417Y1002604D01*
X936402Y1002641D01*
X936332Y1002737D01*
X936269Y1002838D01*
X936239Y1002866D01*
X936215Y1002898D01*
X936124Y1002974D01*
X936037Y1003056D01*
X936002Y1003075D01*
X935970Y1003101D01*
X935863Y1003152D01*
X935759Y1003209D01*
X935719Y1003220D01*
X935683Y1003237D01*
X935566Y1003259D01*
X935451Y1003289D01*
X935390Y1003293D01*
X935370Y1003297D01*
X935350Y1003295D01*
X935290Y1003299D01*
X913830Y1003299D01*
X913712Y1003284D01*
X913593Y1003277D01*
X913555Y1003264D01*
X913515Y1003259D01*
X913404Y1003215D01*
X913291Y1003179D01*
X913256Y1003157D01*
X913219Y1003142D01*
X913123Y1003072D01*
X913022Y1003009D01*
X912994Y1002979D01*
X912962Y1002955D01*
X912886Y1002864D01*
X912804Y1002777D01*
X912785Y1002742D01*
X912759Y1002710D01*
X912708Y1002603D01*
X912651Y1002499D01*
X912640Y1002459D01*
X912623Y1002423D01*
X912601Y1002306D01*
X912571Y1002191D01*
X912567Y1002130D01*
X912563Y1002110D01*
X912565Y1002090D01*
X912561Y1002030D01*
X912561Y1000759D01*
X912559Y1000759D01*
X912559Y1002030D01*
X912544Y1002148D01*
X912537Y1002267D01*
X912524Y1002305D01*
X912519Y1002345D01*
X912475Y1002456D01*
X912439Y1002569D01*
X912417Y1002604D01*
X912402Y1002641D01*
X912332Y1002737D01*
X912269Y1002838D01*
X912239Y1002866D01*
X912215Y1002898D01*
X912124Y1002974D01*
X912037Y1003056D01*
X912002Y1003075D01*
X911970Y1003101D01*
X911863Y1003152D01*
X911759Y1003209D01*
X911719Y1003220D01*
X911683Y1003237D01*
X911566Y1003259D01*
X911451Y1003289D01*
X911390Y1003293D01*
X911370Y1003297D01*
X911350Y1003295D01*
X911290Y1003299D01*
X887830Y1003299D01*
X887712Y1003284D01*
X887593Y1003277D01*
X887555Y1003264D01*
X887515Y1003259D01*
X887404Y1003215D01*
X887291Y1003179D01*
X887256Y1003157D01*
X887219Y1003142D01*
X887123Y1003072D01*
X887022Y1003009D01*
X886994Y1002979D01*
X886962Y1002955D01*
X886886Y1002864D01*
X886804Y1002777D01*
X886785Y1002742D01*
X886759Y1002710D01*
X886708Y1002603D01*
X886651Y1002499D01*
X886640Y1002459D01*
X886623Y1002423D01*
X886601Y1002306D01*
X886571Y1002191D01*
X886567Y1002130D01*
X886563Y1002110D01*
X886565Y1002090D01*
X886561Y1002030D01*
X886561Y1000759D01*
X886559Y1000759D01*
X886559Y1002030D01*
X886544Y1002148D01*
X886537Y1002267D01*
X886524Y1002305D01*
X886519Y1002345D01*
X886475Y1002456D01*
X886439Y1002569D01*
X886417Y1002604D01*
X886402Y1002641D01*
X886332Y1002737D01*
X886269Y1002838D01*
X886239Y1002866D01*
X886215Y1002898D01*
X886124Y1002974D01*
X886037Y1003056D01*
X886002Y1003075D01*
X885970Y1003101D01*
X885863Y1003152D01*
X885759Y1003209D01*
X885719Y1003220D01*
X885683Y1003237D01*
X885566Y1003259D01*
X885451Y1003289D01*
X885390Y1003293D01*
X885370Y1003297D01*
X885350Y1003295D01*
X885290Y1003299D01*
X875019Y1003299D01*
X875019Y1010594D01*
X875192Y1011241D01*
X875374Y1011555D01*
X875425Y1011677D01*
X875482Y1011797D01*
X875487Y1011824D01*
X875497Y1011849D01*
X875517Y1011980D01*
X875542Y1012110D01*
X875540Y1012136D01*
X875544Y1012163D01*
X875530Y1012295D01*
X875522Y1012427D01*
X875514Y1012453D01*
X875511Y1012479D01*
X875465Y1012603D01*
X875424Y1012729D01*
X875409Y1012752D01*
X875400Y1012778D01*
X875325Y1012886D01*
X875254Y1012998D01*
X875234Y1013017D01*
X875219Y1013039D01*
X875119Y1013125D01*
X875022Y1013216D01*
X874998Y1013229D01*
X874978Y1013247D01*
X874859Y1013306D01*
X874744Y1013370D01*
X874717Y1013376D01*
X874693Y1013388D01*
X874563Y1013416D01*
X874436Y1013449D01*
X874398Y1013451D01*
X874382Y1013455D01*
X874360Y1013454D01*
X874275Y1013459D01*
X3810Y1013459D01*
X3692Y1013444D01*
X3573Y1013437D01*
X3535Y1013424D01*
X3494Y1013419D01*
X3384Y1013376D01*
X3271Y1013339D01*
X3236Y1013317D01*
X3199Y1013302D01*
X3103Y1013233D01*
X3002Y1013169D01*
X2974Y1013139D01*
X2941Y1013116D01*
X2865Y1013024D01*
X2784Y1012937D01*
X2764Y1012902D01*
X2739Y1012871D01*
X2688Y1012763D01*
X2630Y1012659D01*
X2620Y1012619D01*
X2603Y1012583D01*
X2581Y1012466D01*
X2551Y1012351D01*
X2547Y1012291D01*
X2543Y1012271D01*
X2545Y1012250D01*
X2541Y1012190D01*
X2541Y3810D01*
X2556Y3692D01*
X2563Y3573D01*
X2576Y3535D01*
X2581Y3494D01*
X2624Y3384D01*
X2661Y3271D01*
X2683Y3236D01*
X2698Y3199D01*
X2767Y3103D01*
X2831Y3002D01*
X2861Y2974D01*
X2884Y2941D01*
X2976Y2865D01*
X3063Y2784D01*
X3098Y2764D01*
X3129Y2739D01*
X3237Y2688D01*
X3341Y2630D01*
X3381Y2620D01*
X3417Y2603D01*
X3534Y2581D01*
X3649Y2551D01*
X3709Y2547D01*
X3729Y2543D01*
X3750Y2545D01*
X3810Y2541D01*
X1266190Y2541D01*
X1266308Y2556D01*
X1266427Y2563D01*
X1266465Y2576D01*
X1266506Y2581D01*
X1266616Y2624D01*
X1266729Y2661D01*
X1266764Y2683D01*
X1266801Y2698D01*
X1266897Y2767D01*
X1266998Y2831D01*
X1267026Y2861D01*
X1267059Y2884D01*
X1267135Y2976D01*
X1267216Y3063D01*
X1267236Y3098D01*
X1267261Y3129D01*
X1267312Y3237D01*
X1267370Y3341D01*
X1267380Y3381D01*
X1267397Y3417D01*
X1267419Y3534D01*
X1267449Y3649D01*
X1267453Y3709D01*
X1267457Y3729D01*
X1267455Y3750D01*
X1267459Y3810D01*
X1267459Y1012190D01*
X1267444Y1012308D01*
G37*
%LPC*%
G36*
X76726Y963931D02*
X76726Y963931D01*
X879850Y963931D01*
X879981Y963947D01*
X880113Y963958D01*
X880139Y963967D01*
X880166Y963971D01*
X880288Y964019D01*
X880414Y964063D01*
X880436Y964078D01*
X880461Y964088D01*
X880568Y964165D01*
X880679Y964239D01*
X880697Y964259D01*
X880719Y964274D01*
X880803Y964376D01*
X880892Y964475D01*
X880904Y964499D01*
X880921Y964519D01*
X880978Y964639D01*
X881039Y964757D01*
X881045Y964783D01*
X881057Y964807D01*
X881082Y964937D01*
X881112Y965066D01*
X881112Y965093D01*
X881117Y965120D01*
X881108Y965252D01*
X881106Y965384D01*
X881099Y965410D01*
X881097Y965437D01*
X881056Y965563D01*
X881021Y965690D01*
X881004Y965725D01*
X880999Y965739D01*
X880987Y965758D01*
X880949Y965835D01*
X880692Y966279D01*
X880519Y966926D01*
X880519Y972721D01*
X892290Y972721D01*
X892408Y972736D01*
X892527Y972743D01*
X892565Y972756D01*
X892605Y972761D01*
X892716Y972804D01*
X892829Y972841D01*
X892864Y972863D01*
X892901Y972878D01*
X892997Y972948D01*
X893098Y973011D01*
X893126Y973041D01*
X893158Y973065D01*
X893234Y973156D01*
X893316Y973243D01*
X893335Y973278D01*
X893361Y973309D01*
X893412Y973417D01*
X893469Y973521D01*
X893480Y973561D01*
X893497Y973597D01*
X893519Y973714D01*
X893549Y973829D01*
X893553Y973890D01*
X893557Y973910D01*
X893555Y973930D01*
X893559Y973990D01*
X893559Y975261D01*
X894830Y975261D01*
X894948Y975276D01*
X895067Y975283D01*
X895105Y975296D01*
X895145Y975301D01*
X895256Y975345D01*
X895369Y975381D01*
X895404Y975403D01*
X895441Y975418D01*
X895537Y975488D01*
X895638Y975551D01*
X895666Y975581D01*
X895698Y975605D01*
X895774Y975696D01*
X895856Y975783D01*
X895875Y975818D01*
X895901Y975850D01*
X895952Y975957D01*
X896009Y976061D01*
X896020Y976101D01*
X896037Y976137D01*
X896059Y976254D01*
X896089Y976369D01*
X896093Y976430D01*
X896097Y976450D01*
X896095Y976470D01*
X896099Y976530D01*
X896099Y985801D01*
X904394Y985801D01*
X905041Y985628D01*
X905620Y985293D01*
X906093Y984820D01*
X906428Y984241D01*
X906497Y983982D01*
X906547Y983860D01*
X906592Y983735D01*
X906607Y983713D01*
X906617Y983688D01*
X906696Y983581D01*
X906770Y983472D01*
X906790Y983454D01*
X906807Y983433D01*
X906910Y983349D01*
X907009Y983262D01*
X907033Y983249D01*
X907054Y983232D01*
X907174Y983177D01*
X907292Y983117D01*
X907318Y983111D01*
X907343Y983100D01*
X907473Y983076D01*
X907602Y983047D01*
X907629Y983048D01*
X907656Y983043D01*
X907788Y983053D01*
X907920Y983057D01*
X907946Y983065D01*
X907973Y983067D01*
X908099Y983109D01*
X908226Y983146D01*
X908249Y983159D01*
X908274Y983168D01*
X908386Y983240D01*
X908489Y983301D01*
X940642Y983301D01*
X940705Y983247D01*
X940730Y983235D01*
X940751Y983219D01*
X940872Y983166D01*
X940992Y983108D01*
X941018Y983103D01*
X941043Y983092D01*
X941173Y983071D01*
X941303Y983045D01*
X941330Y983047D01*
X941357Y983042D01*
X941488Y983055D01*
X941621Y983062D01*
X941647Y983070D01*
X941673Y983072D01*
X941798Y983117D01*
X941924Y983156D01*
X941947Y983171D01*
X941973Y983180D01*
X942083Y983254D01*
X942195Y983324D01*
X942214Y983343D01*
X942236Y983358D01*
X942324Y983458D01*
X942415Y983553D01*
X942429Y983576D01*
X942446Y983597D01*
X942507Y983714D01*
X942572Y983830D01*
X942584Y983866D01*
X942591Y983880D01*
X942596Y983901D01*
X942623Y983982D01*
X942692Y984241D01*
X943027Y984820D01*
X943500Y985293D01*
X944079Y985628D01*
X944726Y985801D01*
X953021Y985801D01*
X953021Y976530D01*
X953036Y976412D01*
X953043Y976293D01*
X953056Y976255D01*
X953061Y976215D01*
X953104Y976104D01*
X953141Y975991D01*
X953163Y975956D01*
X953178Y975919D01*
X953248Y975823D01*
X953311Y975722D01*
X953341Y975694D01*
X953365Y975662D01*
X953456Y975586D01*
X953543Y975504D01*
X953578Y975485D01*
X953609Y975459D01*
X953717Y975408D01*
X953821Y975351D01*
X953861Y975340D01*
X953897Y975323D01*
X954014Y975301D01*
X954129Y975271D01*
X954190Y975267D01*
X954210Y975263D01*
X954230Y975265D01*
X954290Y975261D01*
X955561Y975261D01*
X955561Y973990D01*
X955576Y973872D01*
X955583Y973753D01*
X955596Y973715D01*
X955601Y973675D01*
X955645Y973564D01*
X955681Y973451D01*
X955703Y973416D01*
X955718Y973379D01*
X955788Y973283D01*
X955851Y973182D01*
X955881Y973154D01*
X955905Y973121D01*
X955996Y973046D01*
X956083Y972964D01*
X956118Y972944D01*
X956150Y972919D01*
X956257Y972868D01*
X956361Y972810D01*
X956401Y972800D01*
X956437Y972783D01*
X956554Y972761D01*
X956669Y972731D01*
X956730Y972727D01*
X956750Y972723D01*
X956770Y972725D01*
X956830Y972721D01*
X968601Y972721D01*
X968601Y966926D01*
X968428Y966279D01*
X968171Y965835D01*
X968119Y965712D01*
X968063Y965593D01*
X968058Y965566D01*
X968048Y965542D01*
X968028Y965410D01*
X968003Y965281D01*
X968005Y965254D01*
X968001Y965227D01*
X968015Y965095D01*
X968023Y964963D01*
X968031Y964937D01*
X968034Y964911D01*
X968080Y964787D01*
X968121Y964661D01*
X968136Y964638D01*
X968145Y964613D01*
X968220Y964504D01*
X968291Y964392D01*
X968311Y964373D01*
X968326Y964351D01*
X968426Y964265D01*
X968523Y964174D01*
X968546Y964161D01*
X968567Y964143D01*
X968686Y964084D01*
X968801Y964020D01*
X968828Y964014D01*
X968852Y964002D01*
X968981Y963974D01*
X969109Y963941D01*
X969147Y963939D01*
X969163Y963935D01*
X969185Y963936D01*
X969270Y963931D01*
X1193274Y963931D01*
X1217931Y939274D01*
X1217931Y76726D01*
X1193274Y52069D01*
X76726Y52069D01*
X52069Y76726D01*
X52069Y402710D01*
X52054Y402828D01*
X52047Y402947D01*
X52034Y402985D01*
X52029Y403026D01*
X51986Y403136D01*
X51949Y403249D01*
X51927Y403284D01*
X51912Y403321D01*
X51843Y403417D01*
X51779Y403518D01*
X51749Y403546D01*
X51726Y403579D01*
X51634Y403655D01*
X51547Y403736D01*
X51512Y403756D01*
X51481Y403781D01*
X51373Y403832D01*
X51269Y403890D01*
X51229Y403900D01*
X51193Y403917D01*
X51076Y403939D01*
X50961Y403969D01*
X50901Y403973D01*
X50881Y403977D01*
X50860Y403975D01*
X50800Y403979D01*
X46379Y403979D01*
X46379Y412750D01*
X46364Y412868D01*
X46357Y412987D01*
X46344Y413025D01*
X46339Y413065D01*
X46295Y413176D01*
X46259Y413289D01*
X46237Y413324D01*
X46222Y413361D01*
X46152Y413457D01*
X46089Y413558D01*
X46059Y413586D01*
X46035Y413618D01*
X45944Y413694D01*
X45857Y413776D01*
X45822Y413795D01*
X45790Y413821D01*
X45683Y413872D01*
X45579Y413929D01*
X45539Y413940D01*
X45503Y413957D01*
X45386Y413979D01*
X45271Y414009D01*
X45210Y414013D01*
X45190Y414017D01*
X45170Y414015D01*
X45110Y414019D01*
X43839Y414019D01*
X43839Y414021D01*
X45110Y414021D01*
X45228Y414036D01*
X45347Y414043D01*
X45385Y414056D01*
X45425Y414061D01*
X45536Y414105D01*
X45649Y414141D01*
X45684Y414163D01*
X45721Y414178D01*
X45817Y414248D01*
X45918Y414311D01*
X45946Y414341D01*
X45978Y414365D01*
X46054Y414456D01*
X46136Y414543D01*
X46155Y414578D01*
X46181Y414610D01*
X46232Y414717D01*
X46289Y414821D01*
X46300Y414861D01*
X46317Y414897D01*
X46339Y415014D01*
X46369Y415129D01*
X46373Y415190D01*
X46377Y415210D01*
X46375Y415230D01*
X46379Y415290D01*
X46379Y424061D01*
X50800Y424061D01*
X50918Y424076D01*
X51037Y424083D01*
X51075Y424096D01*
X51116Y424101D01*
X51226Y424144D01*
X51339Y424181D01*
X51374Y424203D01*
X51411Y424218D01*
X51507Y424287D01*
X51608Y424351D01*
X51636Y424381D01*
X51669Y424404D01*
X51745Y424496D01*
X51826Y424583D01*
X51846Y424618D01*
X51871Y424649D01*
X51922Y424757D01*
X51980Y424861D01*
X51990Y424901D01*
X52007Y424937D01*
X52029Y425054D01*
X52059Y425169D01*
X52063Y425229D01*
X52067Y425249D01*
X52065Y425270D01*
X52069Y425330D01*
X52069Y939274D01*
X76726Y963931D01*
G37*
%LPD*%
%LPC*%
G36*
X32568Y904819D02*
X32568Y904819D01*
X28519Y908868D01*
X27036Y914400D01*
X28519Y919932D01*
X32568Y923981D01*
X38100Y925464D01*
X43632Y923981D01*
X47681Y919932D01*
X49164Y914400D01*
X47681Y908868D01*
X43632Y904819D01*
X38100Y903336D01*
X32568Y904819D01*
G37*
%LPD*%
%LPC*%
G36*
X1226368Y904819D02*
X1226368Y904819D01*
X1222319Y908868D01*
X1220836Y914400D01*
X1222319Y919932D01*
X1226368Y923981D01*
X1231900Y925464D01*
X1237432Y923981D01*
X1241481Y919932D01*
X1242964Y914400D01*
X1241481Y908868D01*
X1237432Y904819D01*
X1231900Y903336D01*
X1226368Y904819D01*
G37*
%LPD*%
%LPC*%
G36*
X1226368Y79319D02*
X1226368Y79319D01*
X1222319Y83368D01*
X1220836Y88900D01*
X1222319Y94432D01*
X1226368Y98481D01*
X1231900Y99964D01*
X1237432Y98481D01*
X1241481Y94432D01*
X1242964Y88900D01*
X1241481Y83368D01*
X1237432Y79319D01*
X1231900Y77836D01*
X1226368Y79319D01*
G37*
%LPD*%
%LPC*%
G36*
X1234439Y980439D02*
X1234439Y980439D01*
X1234439Y1002536D01*
X1236055Y1002354D01*
X1238767Y1001735D01*
X1241392Y1000817D01*
X1243899Y999610D01*
X1246254Y998130D01*
X1248429Y996395D01*
X1250395Y994429D01*
X1252130Y992254D01*
X1253610Y989899D01*
X1254817Y987392D01*
X1255735Y984767D01*
X1256354Y982055D01*
X1256536Y980439D01*
X1234439Y980439D01*
G37*
%LPD*%
%LPC*%
G36*
X40639Y980439D02*
X40639Y980439D01*
X40639Y1002536D01*
X42255Y1002354D01*
X44967Y1001735D01*
X47592Y1000817D01*
X50099Y999610D01*
X52454Y998130D01*
X54629Y996395D01*
X56595Y994429D01*
X58330Y992254D01*
X59810Y989899D01*
X61017Y987392D01*
X61935Y984767D01*
X62554Y982055D01*
X62736Y980439D01*
X40639Y980439D01*
G37*
%LPD*%
%LPC*%
G36*
X1234439Y40639D02*
X1234439Y40639D01*
X1234439Y62736D01*
X1236055Y62554D01*
X1238767Y61935D01*
X1241392Y61017D01*
X1243899Y59810D01*
X1246254Y58330D01*
X1248429Y56595D01*
X1250395Y54629D01*
X1252130Y52454D01*
X1253610Y50099D01*
X1254817Y47592D01*
X1255735Y44967D01*
X1256354Y42255D01*
X1256536Y40639D01*
X1234439Y40639D01*
G37*
%LPD*%
%LPC*%
G36*
X40639Y40639D02*
X40639Y40639D01*
X40639Y62736D01*
X42255Y62554D01*
X44967Y61935D01*
X47592Y61017D01*
X50099Y59810D01*
X52454Y58330D01*
X54629Y56595D01*
X56595Y54629D01*
X58330Y52454D01*
X59810Y50099D01*
X61017Y47592D01*
X61935Y44967D01*
X62554Y42255D01*
X62736Y40639D01*
X40639Y40639D01*
G37*
%LPD*%
%LPC*%
G36*
X13464Y980439D02*
X13464Y980439D01*
X13646Y982055D01*
X14265Y984767D01*
X15183Y987392D01*
X16390Y989899D01*
X17870Y992254D01*
X19605Y994429D01*
X21571Y996395D01*
X23746Y998130D01*
X26101Y999610D01*
X28608Y1000817D01*
X31233Y1001735D01*
X33945Y1002354D01*
X35561Y1002536D01*
X35561Y980439D01*
X13464Y980439D01*
G37*
%LPD*%
%LPC*%
G36*
X1207264Y980439D02*
X1207264Y980439D01*
X1207446Y982055D01*
X1208065Y984767D01*
X1208983Y987392D01*
X1210190Y989899D01*
X1211670Y992254D01*
X1213405Y994429D01*
X1215371Y996395D01*
X1217546Y998130D01*
X1219901Y999610D01*
X1222408Y1000817D01*
X1225033Y1001735D01*
X1227745Y1002354D01*
X1229361Y1002536D01*
X1229361Y980439D01*
X1207264Y980439D01*
G37*
%LPD*%
%LPC*%
G36*
X40639Y35561D02*
X40639Y35561D01*
X62736Y35561D01*
X62554Y33945D01*
X61935Y31233D01*
X61017Y28608D01*
X59810Y26101D01*
X58330Y23746D01*
X56595Y21571D01*
X54629Y19605D01*
X52454Y17870D01*
X50099Y16390D01*
X47592Y15183D01*
X44967Y14265D01*
X42255Y13646D01*
X40639Y13464D01*
X40639Y35561D01*
G37*
%LPD*%
%LPC*%
G36*
X1234439Y35561D02*
X1234439Y35561D01*
X1256536Y35561D01*
X1256354Y33945D01*
X1255735Y31233D01*
X1254817Y28608D01*
X1253610Y26101D01*
X1252130Y23746D01*
X1250395Y21571D01*
X1248429Y19605D01*
X1246254Y17870D01*
X1243899Y16390D01*
X1241392Y15183D01*
X1238767Y14265D01*
X1236055Y13646D01*
X1234439Y13464D01*
X1234439Y35561D01*
G37*
%LPD*%
%LPC*%
G36*
X1207264Y40639D02*
X1207264Y40639D01*
X1207446Y42255D01*
X1208065Y44967D01*
X1208983Y47592D01*
X1210190Y50099D01*
X1211670Y52454D01*
X1213405Y54629D01*
X1215371Y56595D01*
X1217546Y58330D01*
X1219901Y59810D01*
X1222408Y61017D01*
X1225033Y61935D01*
X1227745Y62554D01*
X1229361Y62736D01*
X1229361Y40639D01*
X1207264Y40639D01*
G37*
%LPD*%
%LPC*%
G36*
X13464Y40639D02*
X13464Y40639D01*
X13646Y42255D01*
X14265Y44967D01*
X15183Y47592D01*
X16390Y50099D01*
X17870Y52454D01*
X19605Y54629D01*
X21571Y56595D01*
X23746Y58330D01*
X26101Y59810D01*
X28608Y61017D01*
X31233Y61935D01*
X33945Y62554D01*
X35561Y62736D01*
X35561Y40639D01*
X13464Y40639D01*
G37*
%LPD*%
%LPC*%
G36*
X40639Y975361D02*
X40639Y975361D01*
X62736Y975361D01*
X62554Y973745D01*
X61935Y971033D01*
X61017Y968408D01*
X59810Y965901D01*
X58330Y963546D01*
X56595Y961371D01*
X54629Y959405D01*
X52454Y957670D01*
X50099Y956190D01*
X47592Y954983D01*
X44967Y954065D01*
X42255Y953446D01*
X40639Y953264D01*
X40639Y975361D01*
G37*
%LPD*%
%LPC*%
G36*
X1234439Y975361D02*
X1234439Y975361D01*
X1256536Y975361D01*
X1256354Y973745D01*
X1255735Y971033D01*
X1254817Y968408D01*
X1253610Y965901D01*
X1252130Y963546D01*
X1250395Y961371D01*
X1248429Y959405D01*
X1246254Y957670D01*
X1243899Y956190D01*
X1241392Y954983D01*
X1238767Y954065D01*
X1236055Y953446D01*
X1234439Y953264D01*
X1234439Y975361D01*
G37*
%LPD*%
%LPC*%
G36*
X1227745Y13646D02*
X1227745Y13646D01*
X1225033Y14265D01*
X1222408Y15183D01*
X1219901Y16390D01*
X1217546Y17870D01*
X1215371Y19605D01*
X1213405Y21571D01*
X1211670Y23746D01*
X1210190Y26101D01*
X1208983Y28608D01*
X1208065Y31233D01*
X1207446Y33945D01*
X1207264Y35561D01*
X1229361Y35561D01*
X1229361Y13464D01*
X1227745Y13646D01*
G37*
%LPD*%
%LPC*%
G36*
X33945Y13646D02*
X33945Y13646D01*
X31233Y14265D01*
X28608Y15183D01*
X26101Y16390D01*
X23746Y17870D01*
X21571Y19605D01*
X19605Y21571D01*
X17870Y23746D01*
X16390Y26101D01*
X15183Y28608D01*
X14265Y31233D01*
X13646Y33945D01*
X13464Y35561D01*
X35561Y35561D01*
X35561Y13464D01*
X33945Y13646D01*
G37*
%LPD*%
%LPC*%
G36*
X33945Y953446D02*
X33945Y953446D01*
X31233Y954065D01*
X28608Y954983D01*
X26101Y956190D01*
X23746Y957670D01*
X21571Y959405D01*
X19605Y961371D01*
X17870Y963546D01*
X16390Y965901D01*
X15183Y968408D01*
X14265Y971033D01*
X13646Y973745D01*
X13464Y975361D01*
X35561Y975361D01*
X35561Y953264D01*
X33945Y953446D01*
G37*
%LPD*%
%LPC*%
G36*
X1227745Y953446D02*
X1227745Y953446D01*
X1225033Y954065D01*
X1222408Y954983D01*
X1219901Y956190D01*
X1217546Y957670D01*
X1215371Y959405D01*
X1213405Y961371D01*
X1211670Y963546D01*
X1210190Y965901D01*
X1208983Y968408D01*
X1208065Y971033D01*
X1207446Y973745D01*
X1207264Y975361D01*
X1229361Y975361D01*
X1229361Y953264D01*
X1227745Y953446D01*
G37*
%LPD*%
%LPC*%
G36*
X902726Y988719D02*
X902726Y988719D01*
X902079Y988892D01*
X901500Y989227D01*
X901027Y989700D01*
X900692Y990279D01*
X900536Y990863D01*
X900481Y990998D01*
X900429Y991134D01*
X900421Y991145D01*
X900416Y991158D01*
X900329Y991275D01*
X900245Y991393D01*
X900234Y991402D01*
X900226Y991413D01*
X900113Y991505D01*
X900002Y991599D01*
X899990Y991605D01*
X899979Y991613D01*
X899847Y991674D01*
X899716Y991737D01*
X899702Y991740D01*
X899690Y991746D01*
X899547Y991771D01*
X899404Y991800D01*
X899390Y991800D01*
X899377Y991802D01*
X899232Y991791D01*
X899086Y991784D01*
X899073Y991780D01*
X899060Y991779D01*
X898921Y991732D01*
X898783Y991689D01*
X898771Y991682D01*
X898758Y991678D01*
X898636Y991598D01*
X898512Y991522D01*
X898503Y991512D01*
X898492Y991505D01*
X898393Y991398D01*
X898292Y991293D01*
X898285Y991281D01*
X898276Y991271D01*
X898207Y991143D01*
X898135Y991016D01*
X898130Y990998D01*
X898126Y990991D01*
X898121Y990974D01*
X898084Y990863D01*
X897928Y990279D01*
X897593Y989700D01*
X897120Y989227D01*
X896541Y988892D01*
X895894Y988719D01*
X889099Y988719D01*
X889099Y998221D01*
X910021Y998221D01*
X910021Y988719D01*
X902726Y988719D01*
G37*
%LPD*%
%LPC*%
G36*
X953226Y988719D02*
X953226Y988719D01*
X952579Y988892D01*
X952000Y989227D01*
X951527Y989700D01*
X951192Y990279D01*
X951036Y990863D01*
X950981Y990998D01*
X950929Y991134D01*
X950921Y991145D01*
X950916Y991158D01*
X950829Y991275D01*
X950745Y991393D01*
X950734Y991402D01*
X950726Y991413D01*
X950613Y991505D01*
X950502Y991599D01*
X950490Y991605D01*
X950479Y991613D01*
X950347Y991674D01*
X950216Y991737D01*
X950202Y991740D01*
X950190Y991746D01*
X950047Y991771D01*
X949904Y991800D01*
X949890Y991800D01*
X949877Y991802D01*
X949732Y991792D01*
X949586Y991784D01*
X949573Y991780D01*
X949560Y991779D01*
X949422Y991733D01*
X949283Y991689D01*
X949271Y991682D01*
X949258Y991678D01*
X949137Y991599D01*
X949012Y991522D01*
X949003Y991512D01*
X948992Y991505D01*
X948893Y991398D01*
X948792Y991293D01*
X948785Y991281D01*
X948776Y991271D01*
X948707Y991143D01*
X948635Y991016D01*
X948630Y990998D01*
X948626Y990991D01*
X948622Y990974D01*
X948584Y990863D01*
X948428Y990279D01*
X948093Y989700D01*
X947620Y989227D01*
X947041Y988892D01*
X946394Y988719D01*
X939099Y988719D01*
X939099Y998221D01*
X960021Y998221D01*
X960021Y988719D01*
X953226Y988719D01*
G37*
%LPD*%
%LPC*%
G36*
X926726Y988719D02*
X926726Y988719D01*
X926079Y988892D01*
X925500Y989227D01*
X925458Y989269D01*
X925363Y989342D01*
X925274Y989421D01*
X925238Y989439D01*
X925206Y989464D01*
X925097Y989512D01*
X924991Y989566D01*
X924952Y989575D01*
X924915Y989591D01*
X924797Y989609D01*
X924681Y989635D01*
X924640Y989634D01*
X924600Y989640D01*
X924482Y989629D01*
X924363Y989626D01*
X924324Y989614D01*
X924284Y989611D01*
X924172Y989570D01*
X924057Y989537D01*
X924023Y989517D01*
X923984Y989503D01*
X923886Y989436D01*
X923783Y989376D01*
X923738Y989336D01*
X923721Y989325D01*
X923708Y989309D01*
X923663Y989269D01*
X923620Y989227D01*
X923041Y988892D01*
X922394Y988719D01*
X915099Y988719D01*
X915099Y998221D01*
X934021Y998221D01*
X934021Y988719D01*
X926726Y988719D01*
G37*
%LPD*%
%LPC*%
G36*
X965099Y988719D02*
X965099Y988719D01*
X965099Y998221D01*
X974101Y998221D01*
X974101Y990926D01*
X973928Y990279D01*
X973593Y989700D01*
X973120Y989227D01*
X972541Y988892D01*
X971894Y988719D01*
X965099Y988719D01*
G37*
%LPD*%
%LPC*%
G36*
X877226Y988719D02*
X877226Y988719D01*
X876579Y988892D01*
X876000Y989227D01*
X875527Y989700D01*
X875192Y990279D01*
X875019Y990926D01*
X875019Y998221D01*
X884021Y998221D01*
X884021Y988719D01*
X877226Y988719D01*
G37*
%LPD*%
%LPC*%
G36*
X958099Y977799D02*
X958099Y977799D01*
X958099Y985801D01*
X966394Y985801D01*
X967041Y985628D01*
X967620Y985293D01*
X968093Y984820D01*
X968428Y984241D01*
X968601Y983594D01*
X968601Y977799D01*
X958099Y977799D01*
G37*
%LPD*%
%LPC*%
G36*
X880519Y977799D02*
X880519Y977799D01*
X880519Y983594D01*
X880692Y984241D01*
X881027Y984820D01*
X881500Y985293D01*
X882079Y985628D01*
X882726Y985801D01*
X891021Y985801D01*
X891021Y977799D01*
X880519Y977799D01*
G37*
%LPD*%
%LPC*%
G36*
X34799Y416559D02*
X34799Y416559D01*
X34799Y421854D01*
X34972Y422501D01*
X35307Y423080D01*
X35780Y423553D01*
X36359Y423888D01*
X37006Y424061D01*
X41301Y424061D01*
X41301Y416559D01*
X34799Y416559D01*
G37*
%LPD*%
%LPC*%
G36*
X37006Y403979D02*
X37006Y403979D01*
X36359Y404152D01*
X35780Y404487D01*
X35307Y404960D01*
X34972Y405539D01*
X34799Y406186D01*
X34799Y411481D01*
X41301Y411481D01*
X41301Y403979D01*
X37006Y403979D01*
G37*
%LPD*%
%LPC*%
G36*
X38099Y977899D02*
X38099Y977899D01*
X38099Y977901D01*
X38101Y977901D01*
X38101Y977899D01*
X38099Y977899D01*
G37*
%LPD*%
%LPC*%
G36*
X1231899Y977899D02*
X1231899Y977899D01*
X1231899Y977901D01*
X1231901Y977901D01*
X1231901Y977899D01*
X1231899Y977899D01*
G37*
%LPD*%
%LPC*%
G36*
X1231899Y38099D02*
X1231899Y38099D01*
X1231899Y38101D01*
X1231901Y38101D01*
X1231901Y38099D01*
X1231899Y38099D01*
G37*
%LPD*%
%LPC*%
G36*
X38099Y38099D02*
X38099Y38099D01*
X38099Y38101D01*
X38101Y38101D01*
X38101Y38099D01*
X38099Y38099D01*
G37*
%LPD*%
D10*
X764800Y944200D03*
D11*
X739400Y944200D03*
X764800Y918800D03*
X739400Y918800D03*
X764800Y893400D03*
X739400Y893400D03*
X764800Y868000D03*
X739400Y868000D03*
X764800Y842600D03*
X739400Y842600D03*
X764800Y817200D03*
X739400Y817200D03*
X764800Y791800D03*
X739400Y791800D03*
X764800Y766400D03*
X739400Y766400D03*
X764800Y741000D03*
X739400Y741000D03*
X764800Y715600D03*
X739400Y715600D03*
X764800Y690200D03*
X739400Y690200D03*
X764800Y664800D03*
X739400Y664800D03*
X764800Y639400D03*
X739400Y639400D03*
X764800Y614000D03*
X739400Y614000D03*
X764800Y588600D03*
X739400Y588600D03*
X764800Y563200D03*
X739400Y563200D03*
X764800Y537800D03*
X739400Y537800D03*
X764800Y512400D03*
X739400Y512400D03*
D10*
X510800Y944200D03*
D11*
X485400Y944200D03*
X510800Y918800D03*
X485400Y918800D03*
X510800Y893400D03*
X485400Y893400D03*
X510800Y868000D03*
X485400Y868000D03*
X510800Y842600D03*
X485400Y842600D03*
X510800Y817200D03*
X485400Y817200D03*
X510800Y791800D03*
X485400Y791800D03*
X510800Y766400D03*
X485400Y766400D03*
X510800Y741000D03*
X485400Y741000D03*
X510800Y715600D03*
X485400Y715600D03*
X510800Y690200D03*
X485400Y690200D03*
X510800Y664800D03*
X485400Y664800D03*
X510800Y639400D03*
X485400Y639400D03*
X510800Y614000D03*
X485400Y614000D03*
X510800Y588600D03*
X485400Y588600D03*
X510800Y563200D03*
X485400Y563200D03*
X510800Y537800D03*
X485400Y537800D03*
X510800Y512400D03*
X485400Y512400D03*
D12*
X114700Y88900D03*
X139700Y88900D03*
X164700Y88900D03*
X1105300Y88900D03*
X1130300Y88900D03*
X1155300Y88900D03*
D13*
X494300Y177400D03*
X494300Y127400D03*
X369300Y127400D03*
X369300Y177400D03*
X938800Y177400D03*
X938800Y127400D03*
X813800Y127400D03*
X813800Y177400D03*
D14*
X144780Y739020D03*
X144780Y724020D03*
X147320Y589160D03*
X147320Y574160D03*
X147320Y441840D03*
X147320Y426840D03*
D15*
X363300Y241300D03*
X373300Y241300D03*
X807800Y241300D03*
X817800Y241300D03*
D16*
X252730Y858520D03*
D17*
X252730Y833120D03*
X252730Y807720D03*
X252730Y782320D03*
X252730Y756920D03*
X252730Y731520D03*
X252730Y706120D03*
X252730Y680720D03*
X252730Y655320D03*
X252730Y629920D03*
X252730Y604520D03*
X252730Y579120D03*
X252730Y553720D03*
X252730Y528320D03*
X252730Y502920D03*
X252730Y477520D03*
X252730Y452120D03*
X252730Y426720D03*
X252730Y401320D03*
X252730Y375920D03*
D16*
X1014730Y858520D03*
D17*
X1014730Y833120D03*
X1014730Y807720D03*
X1014730Y782320D03*
X1014730Y756920D03*
X1014730Y731520D03*
X1014730Y706120D03*
X1014730Y680720D03*
X1014730Y655320D03*
X1014730Y629920D03*
X1014730Y604520D03*
X1014730Y579120D03*
X1014730Y553720D03*
X1014730Y528320D03*
X1014730Y502920D03*
X1014730Y477520D03*
X1014730Y452120D03*
X1014730Y426720D03*
X1014730Y401320D03*
X1014730Y375920D03*
D18*
X1014730Y331470D03*
X1014730Y902970D03*
X252730Y331470D03*
X252730Y902970D03*
D19*
X962560Y1000760D03*
D20*
X936560Y1000760D03*
X912560Y1000760D03*
D19*
X886560Y1000760D03*
D21*
X893560Y975260D03*
X955560Y975260D03*
D22*
X924560Y974010D03*
X931060Y974010D03*
X911560Y974010D03*
X918060Y974010D03*
X937560Y974010D03*
D23*
X38100Y914400D03*
X1231900Y914400D03*
X1231900Y88900D03*
D24*
X38100Y977900D03*
X38100Y38100D03*
X1231900Y38100D03*
X1231900Y977900D03*
D25*
X43840Y414020D03*
X62840Y414020D03*
D26*
X147320Y556260D02*
X147320Y574160D01*
D27*
X147320Y556260D02*
X144780Y553720D01*
D28*
X144780Y553720D03*
D26*
X147320Y426840D02*
X147320Y414020D01*
D28*
X147320Y414020D03*
D26*
X144780Y713740D02*
X144780Y724020D01*
D28*
X144780Y713740D03*
X901700Y955040D03*
D27*
X68580Y414020D02*
X62840Y414020D01*
X68580Y414020D02*
X71120Y411480D01*
X106680Y411480D01*
D28*
X106680Y411480D03*
D27*
X909320Y955040D02*
X911560Y957280D01*
X909320Y955040D02*
X901700Y955040D01*
X911560Y957280D02*
X911560Y974010D01*
D28*
X828040Y241300D03*
D26*
X817800Y241300D01*
D27*
X383540Y241300D02*
X373300Y241300D01*
D28*
X383540Y241300D03*
D27*
X599440Y703160D02*
X510800Y791800D01*
X599440Y703160D02*
X599440Y660400D01*
D28*
X599440Y660400D03*
D27*
X114700Y622700D02*
X114700Y88900D01*
X114700Y622700D02*
X116840Y624840D01*
D28*
X116840Y624840D03*
X967740Y861060D03*
D27*
X967740Y499110D01*
X1014730Y452120D01*
X753370Y803230D02*
X739400Y817200D01*
X753370Y803230D02*
X769535Y803230D01*
X957580Y615185D01*
X957580Y502920D01*
D28*
X957580Y502920D03*
X975360Y883920D03*
D27*
X975360Y567690D01*
X1014730Y528320D01*
D28*
X678180Y551180D03*
D27*
X678180Y726440D01*
D28*
X678180Y726440D03*
D27*
X366990Y245878D02*
X366990Y244990D01*
X363300Y241300D01*
X485400Y655565D02*
X485400Y664800D01*
X485400Y655565D02*
X496830Y644135D01*
X496830Y375718D02*
X366990Y245878D01*
X496830Y375718D02*
X496830Y644135D01*
X494300Y177400D02*
X369300Y177400D01*
X366990Y236722D02*
X366990Y237610D01*
X363300Y241300D01*
X369300Y234412D02*
X369300Y177400D01*
X369300Y234412D02*
X366990Y236722D01*
X813800Y177400D02*
X938800Y177400D01*
X811490Y236722D02*
X811490Y237610D01*
X807800Y241300D01*
X813800Y234412D02*
X813800Y177400D01*
X813800Y234412D02*
X811490Y236722D01*
X807800Y241300D02*
X807800Y383460D01*
X727970Y704170D02*
X739400Y715600D01*
X727970Y704170D02*
X727970Y463290D01*
X807800Y383460D01*
X937560Y894380D02*
X937560Y974010D01*
X937560Y894380D02*
X937260Y894080D01*
X937918Y894080D01*
D28*
X937918Y894080D03*
D27*
X931060Y839320D02*
X931060Y974010D01*
X931060Y839320D02*
X934720Y835660D01*
D28*
X934720Y835660D03*
D27*
X924560Y835660D02*
X924560Y974010D01*
X924560Y835660D02*
X934720Y825500D01*
D28*
X934720Y825500D03*
D27*
X918060Y815340D02*
X918060Y974010D01*
X918060Y815340D02*
X918060Y813920D01*
X918060Y793600D01*
X916940Y792480D01*
D28*
X916940Y792480D03*
D27*
X247008Y541528D02*
X147320Y441840D01*
X247008Y541528D02*
X257780Y541528D01*
X457252Y741000D02*
X485400Y741000D01*
X457252Y741000D02*
X257780Y541528D01*
X147320Y589160D02*
X240538Y682378D01*
X240538Y685770D01*
X457252Y893400D02*
X485400Y893400D01*
X457252Y893400D02*
X257780Y693928D01*
X248696Y693928D02*
X240538Y685770D01*
X248696Y693928D02*
X257780Y693928D01*
X144780Y739020D02*
X240538Y834778D01*
X240538Y838170D01*
X360562Y944200D02*
X485400Y944200D01*
X360562Y944200D02*
X262690Y846328D01*
X248696Y846328D02*
X240538Y838170D01*
X248696Y846328D02*
X262690Y846328D01*
X812880Y381320D02*
X1105300Y88900D01*
X769620Y650745D02*
X769620Y665480D01*
X812880Y607485D02*
X812880Y381320D01*
X812880Y607485D02*
X769620Y650745D01*
X764800Y664800D02*
X765480Y665480D01*
X769620Y665480D01*
X1155300Y714140D02*
X1155300Y88900D01*
X1155300Y714140D02*
X1153160Y716280D01*
D28*
X1153160Y716280D03*
D27*
X507910Y171763D02*
X499938Y163790D01*
X650240Y521944D02*
X650240Y739140D01*
X239590Y163790D02*
X164700Y88900D01*
X239590Y163790D02*
X499938Y163790D01*
X507910Y379614D02*
X650240Y521944D01*
X507910Y379614D02*
X507910Y171763D01*
X650240Y739140D02*
X725096Y739140D01*
X734666Y729570D01*
X753370Y729570D01*
X764800Y741000D01*
M02*
