G04 EAGLE Gerber RS-274X export*
G75*
%MOMM*%
%FSLAX34Y34*%
%LPD*%
%IN*%
%IPPOS*%
%AMOC8*
5,1,8,0,0,1.08239X$1,22.5*%
G01*
%ADD10C,0.254000*%


D10*
X0Y0D02*
X1270000Y0D01*
X1270000Y1016000D01*
X0Y1016000D01*
X0Y0D01*
X102200Y158409D02*
X102123Y157430D01*
X101969Y156460D01*
X101740Y155504D01*
X101436Y154570D01*
X101061Y153663D01*
X100615Y152788D01*
X100101Y151950D01*
X99524Y151155D01*
X98886Y150408D01*
X98192Y149714D01*
X97445Y149076D01*
X96650Y148499D01*
X95812Y147985D01*
X94937Y147539D01*
X94030Y147164D01*
X93096Y146860D01*
X92141Y146631D01*
X91170Y146477D01*
X90191Y146400D01*
X89209Y146400D01*
X88230Y146477D01*
X87260Y146631D01*
X86304Y146860D01*
X85370Y147164D01*
X84463Y147539D01*
X83588Y147985D01*
X82750Y148499D01*
X81955Y149076D01*
X81208Y149714D01*
X80514Y150408D01*
X79876Y151155D01*
X79299Y151950D01*
X78785Y152788D01*
X78339Y153663D01*
X77964Y154570D01*
X77660Y155504D01*
X77431Y156460D01*
X77277Y157430D01*
X77200Y158409D01*
X77200Y159391D01*
X77277Y160370D01*
X77431Y161341D01*
X77660Y162296D01*
X77964Y163230D01*
X78339Y164137D01*
X78785Y165012D01*
X79299Y165850D01*
X79876Y166645D01*
X80514Y167392D01*
X81208Y168086D01*
X81955Y168724D01*
X82750Y169301D01*
X83588Y169815D01*
X84463Y170261D01*
X85370Y170636D01*
X86304Y170940D01*
X87260Y171169D01*
X88230Y171323D01*
X89209Y171400D01*
X90191Y171400D01*
X91170Y171323D01*
X92141Y171169D01*
X93096Y170940D01*
X94030Y170636D01*
X94937Y170261D01*
X95812Y169815D01*
X96650Y169301D01*
X97445Y168724D01*
X98192Y168086D01*
X98886Y167392D01*
X99524Y166645D01*
X100101Y165850D01*
X100615Y165012D01*
X101061Y164137D01*
X101436Y163230D01*
X101740Y162296D01*
X101969Y161341D01*
X102123Y160370D01*
X102200Y159391D01*
X102200Y158409D01*
X202200Y158409D02*
X202123Y157430D01*
X201969Y156460D01*
X201740Y155504D01*
X201436Y154570D01*
X201061Y153663D01*
X200615Y152788D01*
X200101Y151950D01*
X199524Y151155D01*
X198886Y150408D01*
X198192Y149714D01*
X197445Y149076D01*
X196650Y148499D01*
X195812Y147985D01*
X194937Y147539D01*
X194030Y147164D01*
X193096Y146860D01*
X192141Y146631D01*
X191170Y146477D01*
X190191Y146400D01*
X189209Y146400D01*
X188230Y146477D01*
X187260Y146631D01*
X186304Y146860D01*
X185370Y147164D01*
X184463Y147539D01*
X183588Y147985D01*
X182750Y148499D01*
X181955Y149076D01*
X181208Y149714D01*
X180514Y150408D01*
X179876Y151155D01*
X179299Y151950D01*
X178785Y152788D01*
X178339Y153663D01*
X177964Y154570D01*
X177660Y155504D01*
X177431Y156460D01*
X177277Y157430D01*
X177200Y158409D01*
X177200Y159391D01*
X177277Y160370D01*
X177431Y161341D01*
X177660Y162296D01*
X177964Y163230D01*
X178339Y164137D01*
X178785Y165012D01*
X179299Y165850D01*
X179876Y166645D01*
X180514Y167392D01*
X181208Y168086D01*
X181955Y168724D01*
X182750Y169301D01*
X183588Y169815D01*
X184463Y170261D01*
X185370Y170636D01*
X186304Y170940D01*
X187260Y171169D01*
X188230Y171323D01*
X189209Y171400D01*
X190191Y171400D01*
X191170Y171323D01*
X192141Y171169D01*
X193096Y170940D01*
X194030Y170636D01*
X194937Y170261D01*
X195812Y169815D01*
X196650Y169301D01*
X197445Y168724D01*
X198192Y168086D01*
X198886Y167392D01*
X199524Y166645D01*
X200101Y165850D01*
X200615Y165012D01*
X201061Y164137D01*
X201436Y163230D01*
X201740Y162296D01*
X201969Y161341D01*
X202123Y160370D01*
X202200Y159391D01*
X202200Y158409D01*
X1092800Y158409D02*
X1092723Y157430D01*
X1092569Y156460D01*
X1092340Y155504D01*
X1092036Y154570D01*
X1091661Y153663D01*
X1091215Y152788D01*
X1090701Y151950D01*
X1090124Y151155D01*
X1089486Y150408D01*
X1088792Y149714D01*
X1088045Y149076D01*
X1087250Y148499D01*
X1086412Y147985D01*
X1085537Y147539D01*
X1084630Y147164D01*
X1083696Y146860D01*
X1082741Y146631D01*
X1081770Y146477D01*
X1080791Y146400D01*
X1079809Y146400D01*
X1078830Y146477D01*
X1077860Y146631D01*
X1076904Y146860D01*
X1075970Y147164D01*
X1075063Y147539D01*
X1074188Y147985D01*
X1073350Y148499D01*
X1072555Y149076D01*
X1071808Y149714D01*
X1071114Y150408D01*
X1070476Y151155D01*
X1069899Y151950D01*
X1069385Y152788D01*
X1068939Y153663D01*
X1068564Y154570D01*
X1068260Y155504D01*
X1068031Y156460D01*
X1067877Y157430D01*
X1067800Y158409D01*
X1067800Y159391D01*
X1067877Y160370D01*
X1068031Y161341D01*
X1068260Y162296D01*
X1068564Y163230D01*
X1068939Y164137D01*
X1069385Y165012D01*
X1069899Y165850D01*
X1070476Y166645D01*
X1071114Y167392D01*
X1071808Y168086D01*
X1072555Y168724D01*
X1073350Y169301D01*
X1074188Y169815D01*
X1075063Y170261D01*
X1075970Y170636D01*
X1076904Y170940D01*
X1077860Y171169D01*
X1078830Y171323D01*
X1079809Y171400D01*
X1080791Y171400D01*
X1081770Y171323D01*
X1082741Y171169D01*
X1083696Y170940D01*
X1084630Y170636D01*
X1085537Y170261D01*
X1086412Y169815D01*
X1087250Y169301D01*
X1088045Y168724D01*
X1088792Y168086D01*
X1089486Y167392D01*
X1090124Y166645D01*
X1090701Y165850D01*
X1091215Y165012D01*
X1091661Y164137D01*
X1092036Y163230D01*
X1092340Y162296D01*
X1092569Y161341D01*
X1092723Y160370D01*
X1092800Y159391D01*
X1092800Y158409D01*
X1192800Y158409D02*
X1192723Y157430D01*
X1192569Y156460D01*
X1192340Y155504D01*
X1192036Y154570D01*
X1191661Y153663D01*
X1191215Y152788D01*
X1190701Y151950D01*
X1190124Y151155D01*
X1189486Y150408D01*
X1188792Y149714D01*
X1188045Y149076D01*
X1187250Y148499D01*
X1186412Y147985D01*
X1185537Y147539D01*
X1184630Y147164D01*
X1183696Y146860D01*
X1182741Y146631D01*
X1181770Y146477D01*
X1180791Y146400D01*
X1179809Y146400D01*
X1178830Y146477D01*
X1177860Y146631D01*
X1176904Y146860D01*
X1175970Y147164D01*
X1175063Y147539D01*
X1174188Y147985D01*
X1173350Y148499D01*
X1172555Y149076D01*
X1171808Y149714D01*
X1171114Y150408D01*
X1170476Y151155D01*
X1169899Y151950D01*
X1169385Y152788D01*
X1168939Y153663D01*
X1168564Y154570D01*
X1168260Y155504D01*
X1168031Y156460D01*
X1167877Y157430D01*
X1167800Y158409D01*
X1167800Y159391D01*
X1167877Y160370D01*
X1168031Y161341D01*
X1168260Y162296D01*
X1168564Y163230D01*
X1168939Y164137D01*
X1169385Y165012D01*
X1169899Y165850D01*
X1170476Y166645D01*
X1171114Y167392D01*
X1171808Y168086D01*
X1172555Y168724D01*
X1173350Y169301D01*
X1174188Y169815D01*
X1175063Y170261D01*
X1175970Y170636D01*
X1176904Y170940D01*
X1177860Y171169D01*
X1178830Y171323D01*
X1179809Y171400D01*
X1180791Y171400D01*
X1181770Y171323D01*
X1182741Y171169D01*
X1183696Y170940D01*
X1184630Y170636D01*
X1185537Y170261D01*
X1186412Y169815D01*
X1187250Y169301D01*
X1188045Y168724D01*
X1188792Y168086D01*
X1189486Y167392D01*
X1190124Y166645D01*
X1190701Y165850D01*
X1191215Y165012D01*
X1191661Y164137D01*
X1192036Y163230D01*
X1192340Y162296D01*
X1192569Y161341D01*
X1192723Y160370D01*
X1192800Y159391D01*
X1192800Y158409D01*
M02*
