M48
;GenerationSoftware,Autodesk,EAGLE,9.6.2*%
;CreationDate,2022-12-13T03:45:41Z*%
FMAT,2
ICI,OFF
METRIC,TZ,000.000
T7C0.305
T6C0.889
T5C1.000
T4C1.400
T3C2.500
T2C3.000
T1C3.175
%
G90
M71
T1
X123190Y97790
X3810Y97790
X3810Y3810
X123190Y3810
T2
X101473Y33147
X101473Y90297
X25273Y33147
X25273Y90297
T3
X8970Y15890
X18970Y15890
X108030Y15890
X118030Y15890
T4
X49430Y12740
X49430Y17740
X81380Y17740
X81380Y12740
X93880Y12740
X93880Y17740
X36930Y17740
X36930Y12740
T5
X113030Y8890
X110530Y8890
X13970Y8890
X25273Y62992
X16470Y8890
X11470Y8890
X25273Y70612
X25273Y68072
X25273Y65532
X25273Y60452
X25273Y57912
X25273Y55372
X25273Y52832
X25273Y50292
X25273Y47752
X25273Y45212
X25273Y42672
X25273Y40132
X25273Y37592
X101473Y85852
X101473Y83312
X101473Y80772
X101473Y78232
X101473Y75692
X101473Y73152
X101473Y70612
X101473Y68072
X101473Y62992
X101473Y60452
X101473Y57912
X101473Y55372
X101473Y52832
X101473Y50292
X101473Y47752
X101473Y45212
X101473Y42672
X101473Y40132
X101473Y37592
X25273Y73152
X25273Y75692
X25273Y78232
X25273Y80772
X25273Y83312
X25273Y85852
X115530Y8890
X101473Y65532
T6
X48540Y86800
X51080Y84260
X48540Y84260
X51080Y81720
X48540Y81720
X51080Y79180
X48540Y79180
X51080Y76640
X48540Y76640
X51080Y74100
X48540Y74100
X51080Y71560
X73940Y76640
X51080Y69020
X48540Y69020
X51080Y66480
X48540Y66480
X51080Y63940
X48540Y63940
X51080Y61400
X48540Y61400
X51080Y58860
X48540Y58860
X51080Y56320
X48540Y56320
X51080Y53780
X48540Y53780
X51080Y51240
X48540Y51240
X48540Y71560
X76480Y94420
X73940Y94420
X76480Y91880
X73940Y91880
X76480Y89340
X73940Y89340
X76480Y86800
X73940Y86800
X76480Y84260
X73940Y84260
X76480Y81720
X73940Y81720
X76480Y79180
X73940Y79180
X76480Y76640
X76480Y74100
X73940Y74100
X76480Y71560
X73940Y71560
X76480Y69020
X73940Y69020
X76480Y66480
X51080Y94420
X73940Y66480
X76480Y63940
X73940Y63940
X76480Y61400
X73940Y61400
X76480Y58860
X73940Y58860
X76480Y56320
X73940Y56320
X76480Y53780
X73940Y53780
X76480Y51240
X73940Y51240
X48540Y94420
X51080Y91880
X48540Y91880
X51080Y89340
X48540Y89340
X51080Y86800
T7
X93472Y83566
X93792Y89408
X67818Y72644
X67818Y55118
X97536Y88392
X95758Y50292
X96774Y86106
X11684Y62484
X59944Y66040
X38354Y24130
X82804Y24130
X10668Y41148
X90170Y95504
X14478Y71374
X14732Y41402
X115316Y71628
X14478Y55372
X91694Y79248
X93472Y82550
M30